<?xml version="1.0" encoding="UTF-8"?>
<!DOCTYPE svg PUBLIC "-//W3C//DTD SVG 1.1//EN" "http://www.w3.org/Graphics/SVG/1.1/DTD/svg11.dtd">
<svg xmlns="http://www.w3.org/2000/svg" version="1.1" width="1136px" height="332px" style="shape-rendering:geometricPrecision; text-rendering:geometricPrecision; image-rendering:optimizeQuality; fill-rule:evenodd; clip-rule:evenodd" xmlns:xlink="http://www.w3.org/1999/xlink">
<g><path style="opacity:1" fill="#fefefe" d="M -0.5,-0.5 C 378.167,-0.5 756.833,-0.5 1135.5,-0.5C 1135.5,110.167 1135.5,220.833 1135.5,331.5C 756.833,331.5 378.167,331.5 -0.5,331.5C -0.5,220.833 -0.5,110.167 -0.5,-0.5 Z"/></g>
<g><path style="opacity:1" fill="#1a1a1a" d="M 505.5,87.5 C 513.167,87.5 520.833,87.5 528.5,87.5C 528.167,101.516 528.501,115.516 529.5,129.5C 530.107,129.376 530.44,129.043 530.5,128.5C 538.152,118.906 548.152,115.073 560.5,117C 577.324,120.491 587.491,130.658 591,147.5C 594.677,165.82 591.677,182.82 582,198.5C 572.477,209.178 560.644,213.011 546.5,210C 539.076,208.574 533.243,204.741 529,198.5C 528.502,201.817 528.335,205.15 528.5,208.5C 520.833,208.5 513.167,208.5 505.5,208.5C 505.5,168.167 505.5,127.833 505.5,87.5 Z"/></g>
<g><path style="opacity:1" fill="#1a1a1a" d="M 724.5,87.5 C 724.167,101.516 724.501,115.516 725.5,129.5C 726.107,129.376 726.44,129.043 726.5,128.5C 732.417,120.125 740.584,116.125 751,116.5C 772.016,118.35 784.183,129.683 787.5,150.5C 788.786,158.83 788.786,167.163 787.5,175.5C 781.104,205.865 763.104,216.365 733.5,207C 730.114,204.737 727.281,201.903 725,198.5C 724.502,201.817 724.335,205.15 724.5,208.5C 716.833,208.5 709.167,208.5 701.5,208.5C 701.5,168.167 701.5,127.833 701.5,87.5C 709.167,87.5 716.833,87.5 724.5,87.5 Z"/></g>
<g><path style="opacity:1" fill="#1a1a1a" d="M 58.5,88.5 C 66.1667,88.5 73.8333,88.5 81.5,88.5C 81.1675,102.183 81.5008,115.85 82.5,129.5C 83.1067,129.376 83.44,129.043 83.5,128.5C 89.3784,120.145 97.5451,116.145 108,116.5C 124.809,116.38 135.143,124.38 139,140.5C 139.5,163.164 139.667,185.831 139.5,208.5C 131.5,208.5 123.5,208.5 115.5,208.5C 115.667,188.831 115.5,169.164 115,149.5C 111.285,136.242 103.118,132.742 90.5,139C 86.619,141.928 84.119,145.761 83,150.5C 82.5,169.83 82.3334,189.164 82.5,208.5C 74.5,208.5 66.5,208.5 58.5,208.5C 58.5,168.5 58.5,128.5 58.5,88.5 Z"/></g>
<g><path style="opacity:1" fill="#4f4f4f" d="M 58.5,88.5 C 66.3159,87.5076 74.3159,87.1743 82.5,87.5C 82.171,101.344 82.5043,115.01 83.5,128.5C 83.44,129.043 83.1067,129.376 82.5,129.5C 81.5008,115.85 81.1675,102.183 81.5,88.5C 73.8333,88.5 66.1667,88.5 58.5,88.5 Z"/></g>
<g><path style="opacity:1" fill="#7c7c7c" d="M 505.5,87.5 C 513.316,86.5076 521.316,86.1743 529.5,86.5C 529.171,100.677 529.504,114.677 530.5,128.5C 530.44,129.043 530.107,129.376 529.5,129.5C 528.501,115.516 528.167,101.516 528.5,87.5C 520.833,87.5 513.167,87.5 505.5,87.5 Z"/></g>
<g><path style="opacity:1" fill="#626262" d="M 724.5,87.5 C 725.167,101.167 725.833,114.833 726.5,128.5C 726.44,129.043 726.107,129.376 725.5,129.5C 724.501,115.516 724.167,101.516 724.5,87.5 Z"/></g>
<g><path style="opacity:1" fill="#ea3424" d="M 976.5,96.5 C 980.807,103.77 985.14,111.103 989.5,118.5C 990.086,118.709 990.586,119.043 991,119.5C 994.636,117.363 998.136,115.029 1001.5,112.5C 1001.83,113.167 1002.17,113.833 1002.5,114.5C 999.865,126.17 997.698,137.837 996,149.5C 997.507,150.535 999.007,150.368 1000.5,149C 1005.04,144.625 1009.38,140.125 1013.5,135.5C 1015.7,137.295 1016.87,139.629 1017,142.5C 1017.74,143.574 1018.74,144.241 1020,144.5C 1026.16,142.934 1032.33,141.767 1038.5,141C 1036.07,147.445 1033.74,153.945 1031.5,160.5C 1033.96,162.567 1036.62,164.401 1039.5,166C 1029.02,174.311 1018.69,182.811 1008.5,191.5C 1008.07,192.293 1007.74,193.127 1007.5,194C 1008.98,197.251 1010.32,200.585 1011.5,204C 1001.61,203.157 991.777,201.657 982,199.5C 981.228,199.645 980.561,199.978 980,200.5C 979.623,211.171 979.79,221.838 980.5,232.5C 978.5,232.5 976.5,232.5 974.5,232.5C 975.434,221.823 975.434,211.156 974.5,200.5C 973.707,200.069 972.873,199.735 972,199.5C 963.16,201.112 954.327,202.779 945.5,204.5C 944.833,204.167 944.167,203.833 943.5,203.5C 945.8,199.644 946.8,195.644 946.5,191.5C 936.167,183 925.833,174.5 915.5,166C 917.026,164.113 919.026,163.113 921.5,163C 922.293,161.915 922.96,160.748 923.5,159.5C 921.092,153.276 919.092,146.943 917.5,140.5C 923.525,141.705 929.525,143.038 935.5,144.5C 938.093,141.652 939.926,138.319 941,134.5C 945.467,139.968 950.3,145.135 955.5,150C 957.586,150.557 958.919,149.724 959.5,147.5C 956.678,135.898 954.512,124.231 953,112.5C 955.748,114.458 958.582,116.291 961.5,118C 963.259,118.798 964.926,118.631 966.5,117.5C 970.118,110.6 973.451,103.6 976.5,96.5 Z"/></g>
<g><path style="opacity:1" fill="#1b1b1b" d="M 212.5,210.5 C 204.837,211.778 197.171,211.778 189.5,210.5C 171.954,206.788 161.121,196.122 157,178.5C 151.745,157.201 156.912,139.035 172.5,124C 192.907,112.126 212.907,112.793 232.5,126C 249.881,146.927 252.047,169.427 239,193.5C 232.669,203.081 223.836,208.748 212.5,210.5 Z"/></g>
<g><path style="opacity:1" fill="#1b1b1b" d="M 459.5,210.5 C 454.507,210.916 449.507,211.249 444.5,211.5C 424.342,209.174 411.842,198.174 407,178.5C 403.616,163.476 405.283,149.143 412,135.5C 422.819,119.845 437.652,113.678 456.5,117C 474.8,120.4 485.967,131.234 490,149.5C 490.5,156.492 490.666,163.492 490.5,170.5C 470.5,170.5 450.5,170.5 430.5,170.5C 431.775,188.612 441.108,195.112 458.5,190C 461.177,187.655 463.51,184.988 465.5,182C 473.493,181.5 481.493,181.334 489.5,181.5C 486.073,197.894 476.073,207.561 459.5,210.5 Z"/></g>
<g><path style="opacity:1" fill="#1a1a1a" d="M 263.5,208.5 C 263.5,178.833 263.5,149.167 263.5,119.5C 270.833,119.5 278.167,119.5 285.5,119.5C 285.177,123.226 285.511,126.893 286.5,130.5C 287.107,130.376 287.44,130.043 287.5,129.5C 294.545,118.699 304.545,114.532 317.5,117C 321.341,117.876 325.007,119.209 328.5,121C 331.76,123.752 334.427,126.919 336.5,130.5C 348.223,116.053 362.557,112.887 379.5,121C 385.308,125.139 389.141,130.639 391,137.5C 391.5,161.164 391.667,184.831 391.5,208.5C 383.5,208.5 375.5,208.5 367.5,208.5C 367.667,187.831 367.5,167.164 367,146.5C 362.702,137.526 355.868,135.026 346.5,139C 343.598,141.24 341.431,144.073 340,147.5C 339.5,167.831 339.333,188.164 339.5,208.5C 331.5,208.5 323.5,208.5 315.5,208.5C 315.667,188.497 315.5,168.497 315,148.5C 313.64,140.973 309.14,137.307 301.5,137.5C 294.276,137.231 289.776,140.564 288,147.5C 287.5,167.831 287.333,188.164 287.5,208.5C 279.5,208.5 271.5,208.5 263.5,208.5 Z"/></g>
<g><path style="opacity:1" fill="#1b1b1b" d="M 628.5,147.5 C 621.167,147.5 613.833,147.5 606.5,147.5C 606.5,145.5 606.5,143.5 606.5,141.5C 609.139,129.359 616.472,121.525 628.5,118C 644.273,114.595 659.273,116.595 673.5,124C 678.285,128.069 681.119,133.236 682,139.5C 682.333,159.833 682.667,180.167 683,200.5C 683.637,202.303 684.803,203.636 686.5,204.5C 687.429,205.689 687.762,207.022 687.5,208.5C 678.5,208.5 669.5,208.5 660.5,208.5C 659.955,205.187 659.455,201.854 659,198.5C 647.358,210.602 633.524,214.102 617.5,209C 607.536,203.91 602.536,195.743 602.5,184.5C 603.108,170.451 610.108,161.284 623.5,157C 633.159,155.333 642.826,153.667 652.5,152C 657.224,149.565 658.724,145.731 657,140.5C 649.193,134.588 641.026,134.088 632.5,139C 630.754,141.659 629.42,144.492 628.5,147.5 Z"/></g>
<g><path style="opacity:1" fill="#1b1b1b" d="M 824.5,147.5 C 817.167,147.5 809.833,147.5 802.5,147.5C 802.5,145.5 802.5,143.5 802.5,141.5C 805.139,129.359 812.472,121.525 824.5,118C 840.244,114.595 855.244,116.595 869.5,124C 874.285,128.069 877.119,133.236 878,139.5C 878.333,159.833 878.667,180.167 879,200.5C 879.667,202.5 881,203.833 883,204.5C 883.49,205.793 883.657,207.127 883.5,208.5C 874.5,208.5 865.5,208.5 856.5,208.5C 855.955,205.187 855.455,201.854 855,198.5C 843.358,210.602 829.524,214.102 813.5,209C 803.797,203.737 798.797,195.57 798.5,184.5C 799.108,170.451 806.108,161.284 819.5,157C 829.159,155.333 838.826,153.667 848.5,152C 855.136,148.673 856.136,144.173 851.5,138.5C 843.674,134.388 836.007,134.555 828.5,139C 826.711,141.738 825.378,144.572 824.5,147.5 Z"/></g>
<g><path style="opacity:1" fill="#5a5a5a" d="M 287.5,129.5 C 287.44,130.043 287.107,130.376 286.5,130.5C 285.511,126.893 285.177,123.226 285.5,119.5C 278.167,119.5 270.833,119.5 263.5,119.5C 263.5,149.167 263.5,178.833 263.5,208.5C 262.502,178.671 262.169,148.671 262.5,118.5C 270.5,118.5 278.5,118.5 286.5,118.5C 286.185,122.371 286.518,126.038 287.5,129.5 Z"/></g>
<g><path style="opacity:1" fill="#fcfcfc" d="M 194.5,136.5 C 207.667,134.218 216.5,139.218 221,151.5C 221.667,159.167 221.667,166.833 221,174.5C 215.633,190.807 205.133,195.307 189.5,188C 185,184.171 182.167,179.338 181,173.5C 180.333,166.5 180.333,159.5 181,152.5C 182.95,144.888 187.45,139.555 194.5,136.5 Z"/></g>
<g><path style="opacity:1" fill="#fbfbfb" d="M 465.5,153.5 C 454.167,153.5 442.833,153.5 431.5,153.5C 431.5,152.5 431.5,151.5 431.5,150.5C 434.877,138.809 442.543,134.309 454.5,137C 461.998,139.99 465.665,145.49 465.5,153.5 Z"/></g>
<g><path style="opacity:1" fill="#fbfbfb" d="M 544.5,137.5 C 557.505,136.675 565.005,142.675 567,155.5C 568.545,165.286 567.212,174.619 563,183.5C 555.657,191.021 547.157,192.521 537.5,188C 532.893,183.399 530.06,177.899 529,171.5C 526.424,159.959 528.924,149.793 536.5,141C 539.158,139.522 541.825,138.355 544.5,137.5 Z"/></g>
<g><path style="opacity:1" fill="#fbfbfb" d="M 740.5,137.5 C 753.505,136.675 761.005,142.675 763,155.5C 764.545,165.286 763.212,174.619 759,183.5C 751.657,191.021 743.157,192.521 733.5,188C 725.286,178.311 722.452,167.144 725,154.5C 726.615,145.393 731.781,139.726 740.5,137.5 Z"/></g>
<g><path style="opacity:1" fill="#737373" d="M 606.5,141.5 C 606.5,143.5 606.5,145.5 606.5,147.5C 613.833,147.5 621.167,147.5 628.5,147.5C 621.018,148.492 613.352,148.825 605.5,148.5C 605.198,145.941 605.532,143.607 606.5,141.5 Z"/></g>
<g><path style="opacity:1" fill="#757575" d="M 802.5,141.5 C 802.5,143.5 802.5,145.5 802.5,147.5C 809.833,147.5 817.167,147.5 824.5,147.5C 817.018,148.492 809.352,148.825 801.5,148.5C 801.198,145.941 801.532,143.607 802.5,141.5 Z"/></g>
<g><path style="opacity:1" fill="#b4b4b4" d="M 431.5,150.5 C 431.5,151.5 431.5,152.5 431.5,153.5C 442.833,153.5 454.167,153.5 465.5,153.5C 454.012,154.495 442.345,154.828 430.5,154.5C 430.232,152.901 430.566,151.568 431.5,150.5 Z"/></g>
<g><path style="opacity:1" fill="#b5b5b5" d="M 787.5,150.5 C 788.997,154.223 789.663,158.223 789.5,162.5C 789.621,167.093 788.954,171.426 787.5,175.5C 788.786,167.163 788.786,158.83 787.5,150.5 Z"/></g>
<g><path style="opacity:1" fill="#f9f9f9" d="M 656.5,166.5 C 657.483,170.298 657.817,174.298 657.5,178.5C 653.85,190.171 645.85,195.004 633.5,193C 628.964,191.276 626.631,187.943 626.5,183C 626.902,176.595 630.235,172.595 636.5,171C 643.348,170.19 650.015,168.69 656.5,166.5 Z"/></g>
<g><path style="opacity:1" fill="#fafafa" d="M 852.5,166.5 C 853.483,170.298 853.817,174.298 853.5,178.5C 852.31,186.612 847.643,191.445 839.5,193C 826.348,195.689 821.181,190.522 824,177.5C 825.944,174.266 828.778,172.1 832.5,171C 839.348,170.19 846.015,168.69 852.5,166.5 Z"/></g>
<g><path style="opacity:1" fill="#808080" d="M 656.5,166.5 C 656.56,165.957 656.893,165.624 657.5,165.5C 658.811,169.984 658.811,174.317 657.5,178.5C 657.817,174.298 657.483,170.298 656.5,166.5 Z"/></g>
<g><path style="opacity:1" fill="#8b8b8b" d="M 852.5,166.5 C 852.56,165.957 852.893,165.624 853.5,165.5C 854.811,169.984 854.811,174.317 853.5,178.5C 853.817,174.298 853.483,170.298 852.5,166.5 Z"/></g>
<g><path style="opacity:1" fill="#b1b1b1" d="M 189.5,210.5 C 197.171,211.778 204.837,211.778 212.5,210.5C 204.842,213.12 197.176,213.12 189.5,210.5 Z"/></g>
<g><path style="opacity:1" fill="#b6b6b6" d="M 459.5,210.5 C 454.566,212.383 449.566,212.716 444.5,211.5C 449.507,211.249 454.507,210.916 459.5,210.5 Z"/></g>
</svg>
